HIERARCHY
ROOT root
{
	OFFSET 0.000000 0.000000 0.000000
	CHANNELS 6 Xposition Yposition Zposition Zrotation Yrotation Xrotation
	JOINT lhip
	{
		OFFSET 0.058581 -0.082280 -0.017664
		CHANNELS 3 Zrotation Yrotation Xrotation
		JOINT lknee
		{
			OFFSET 0.043451 -0.386469 0.008037
			CHANNELS 3 Zrotation Yrotation Xrotation
			JOINT lankle
			{
				OFFSET -0.014790 -0.426874 -0.037428
				CHANNELS 3 Zrotation Yrotation Xrotation
				JOINT ltoe
				{
					OFFSET 0.041054 -0.060286 0.122042
					CHANNELS 3 Zrotation Yrotation Xrotation
					End Site
					{
						OFFSET 0.000000 0.000000 0.000000
					}
				}
			}
		}
	}
	JOINT rhip
	{
		OFFSET -0.060310 -0.090513 -0.013543
		CHANNELS 3 Zrotation Yrotation Xrotation
		JOINT rknee
		{
			OFFSET -0.043257 -0.383688 -0.004843
			CHANNELS 3 Zrotation Yrotation Xrotation
			JOINT rankle
			{
				OFFSET 0.019056 -0.420046 -0.034562
				CHANNELS 3 Zrotation Yrotation Xrotation
				JOINT rtoe
				{
					OFFSET -0.034840 -0.062106 0.130323
					CHANNELS 3 Zrotation Yrotation Xrotation
					End Site
					{
						OFFSET 0.000000 0.000000 0.000000
					}
				}
			}
		}
	}
	JOINT lowerback
	{
		OFFSET 0.004439 0.124404 -0.038385
		CHANNELS 3 Zrotation Yrotation Xrotation
		JOINT upperback
		{
			OFFSET 0.004488 0.137956 0.026820
			CHANNELS 3 Zrotation Yrotation Xrotation
			JOINT chest
			{
				OFFSET -0.002265 0.056032 0.002855
				CHANNELS 3 Zrotation Yrotation Xrotation
				JOINT lowerneck
				{
					OFFSET -0.013390 0.211636 -0.033468
					CHANNELS 3 Zrotation Yrotation Xrotation
					JOINT upperneck
					{
						OFFSET 0.010113 0.088937 0.050410
						CHANNELS 3 Zrotation Yrotation Xrotation
						End Site
						{
							OFFSET 0.000000 0.000000 0.000000
						}
					}
				}
				JOINT lclavicle
				{
					OFFSET 0.071702 0.114000 -0.018898
					CHANNELS 3 Zrotation Yrotation Xrotation
					JOINT lshoulder
					{
						OFFSET 0.122921 0.045205 -0.019046
						CHANNELS 3 Zrotation Yrotation Xrotation
						JOINT lelbow
						{
							OFFSET 0.255332 -0.015649 -0.022946
							CHANNELS 3 Zrotation Yrotation Xrotation
							JOINT lwrist
							{
								OFFSET 0.265709 0.012698 -0.007375
								CHANNELS 3 Zrotation Yrotation Xrotation
								End Site
								{
									OFFSET 0.000000 0.000000 0.000000
								}
							}
						}
					}
				}
				JOINT rclavicle
				{
					OFFSET -0.082954 0.112472 -0.023707
					CHANNELS 3 Zrotation Yrotation Xrotation
					JOINT rshoulder
					{
						OFFSET -0.113228 0.046853 -0.008472
						CHANNELS 3 Zrotation Yrotation Xrotation
						JOINT relbow
						{
							OFFSET -0.260127 -0.014369 -0.031269
							CHANNELS 3 Zrotation Yrotation Xrotation
							JOINT rwrist
							{
								OFFSET -0.269108 0.006794 -0.006027
								CHANNELS 3 Zrotation Yrotation Xrotation
								End Site
								{
									OFFSET 0.000000 0.000000 0.000000
								}
							}
						}
					}
				}
			}
		}
	}
}
MOTION
Frames: 15
Frame Time: 0.033333
0.371579 0.172884 0.995772 87.280102 0.161897 89.690930 7.090906 4.379727 3.858764 -3.961247 -1.893197 -0.144365 0.268810 8.885007 -4.965220 0.000000 -0.000000 0.000000 -7.209403 -4.362035 -0.424074 1.049314 -1.805907 5.868702 4.698845 -5.878843 -7.355191 0.000000 -0.000000 0.000000 -4.090222 3.863379 -1.346470 1.462429 -1.755255 8.410751 0.497645 0.444832 -3.740319 3.063285 4.154303 -0.793602 4.523822 -0.644918 0.298629 -28.586294 -2.160949 0.021995 -54.170335 -5.969701 16.116605 0.956309 -18.977009 4.960639 -0.998217 -13.645895 2.573100 31.498068 4.195432 5.026346 53.148220 3.430887 15.539393 -9.446858 24.070825 -4.004912 -0.875680 10.796211 -3.507118 
0.371448 0.172982 0.995720 87.265719 0.147629 89.683379 7.063337 4.357881 3.883135 -3.948432 -1.898795 -0.180323 0.251001 8.882928 -4.964857 0.000000 -0.000000 0.000000 -7.239137 -4.378107 -0.433526 1.062953 -1.779775 5.874883 4.681728 -5.878917 -7.334454 0.000000 -0.000000 0.000000 -4.083885 3.845652 -1.309641 1.427107 -1.727404 8.339862 0.513287 0.478309 -3.658247 3.025644 4.135441 -0.944221 4.469980 -0.648733 0.526329 -28.538059 -2.255607 0.059676 -54.206944 -6.008013 15.993715 0.926289 -18.916593 4.965223 -1.035089 -13.630647 2.604123 31.440366 4.224879 5.088355 53.246948 3.497127 15.485267 -9.516064 24.074494 -4.046455 -0.865340 10.802447 -3.489529 
0.371302 0.172981 0.995678 87.268604 0.138108 89.700476 7.043176 4.349325 3.849904 -3.937993 -1.900286 -0.174689 0.222397 8.881408 -4.955785 0.000000 -0.000000 0.000000 -7.246115 -4.374802 -0.471687 1.053227 -1.773881 5.898566 4.675395 -5.891925 -7.349057 0.000000 -0.000000 0.000000 -4.081305 3.832168 -1.314146 1.385836 -1.712592 8.288411 0.542169 0.497507 -3.574549 2.972618 4.109482 -0.983434 4.457380 -0.609686 0.527117 -28.420362 -2.314424 0.054809 -54.308954 -6.081859 15.884669 0.933179 -18.736224 5.058105 -1.214586 -13.850976 2.844891 31.308579 4.250773 5.090243 53.406479 3.527274 15.437407 -9.532839 24.109752 -3.974914 -0.811744 10.833539 -3.567429 
0.371244 0.173062 0.995636 87.260645 0.141396 89.714799 7.026746 4.329575 3.834048 -3.922412 -1.889545 -0.177370 0.231136 8.921877 -4.956212 0.000000 -0.000000 0.000000 -7.240026 -4.339776 -0.488369 1.041724 -1.776943 5.893015 4.674928 -5.916963 -7.352353 0.000000 -0.000000 0.000000 -4.061634 3.798050 -1.254156 1.356304 -1.703427 8.164470 0.539788 0.498476 -3.554327 2.977597 4.093949 -0.954591 4.447794 -0.531967 0.613295 -28.488044 -2.220196 0.043075 -54.240261 -6.021179 15.877471 1.058541 -18.717261 5.178900 -1.268864 -14.164808 3.063520 31.315699 4.232325 5.089396 53.418401 3.500104 15.467617 -9.500411 24.133320 -3.821639 -0.878994 10.906728 -3.615910 
0.371171 0.173106 0.995678 87.236146 0.148001 89.694523 7.034779 4.353966 3.854096 -3.927069 -1.870522 -0.176481 0.250299 8.889041 -4.950265 0.000000 -0.000000 0.000000 -7.238308 -4.359748 -0.483551 1.035626 -1.752604 5.904350 4.662852 -5.867433 -7.319050 0.000000 -0.000000 0.000000 -4.047920 3.808764 -1.241622 1.374399 -1.694049 8.199068 0.522334 0.507029 -3.577301 2.982494 4.115499 -0.883330 4.381051 -0.524672 0.571316 -28.461181 -2.260749 0.042476 -54.296993 -5.999736 15.900439 1.020267 -18.975686 4.990509 -1.289658 -13.619927 2.760352 31.313160 4.248478 5.115601 53.433220 3.542037 15.492644 -9.565505 24.111281 -4.008697 -0.660430 10.770440 -3.548041 
0.371104 0.173109 0.995679 87.234002 0.148357 89.687733 7.045678 4.358150 3.848998 -3.943197 -1.873862 -0.172913 0.252870 8.858237 -4.954762 0.000000 -0.000000 0.000000 -7.240860 -4.372884 -0.495318 1.043680 -1.756190 5.911513 4.687886 -5.848308 -7.340793 0.000000 -0.000000 0.000000 -4.016094 3.802636 -1.217059 1.362840 -1.689380 8.165471 0.492153 0.502317 -3.571684 2.994074 4.141199 -0.879693 4.328330 -0.506776 0.611471 -28.454276 -2.301874 0.069759 -54.287178 -5.998586 15.950452 0.938340 -19.087461 4.923183 -1.041739 -13.361601 2.460746 31.319529 4.233007 5.135846 53.461378 3.597440 15.523070 -9.569500 24.100651 -4.069862 -0.702650 10.705405 -3.521001 
0.370991 0.173126 0.995669 87.230066 0.131791 89.692932 7.013933 4.346694 3.828546 -3.927744 -1.864452 -0.163273 0.265767 8.849872 -4.947601 0.000000 -0.000000 0.000000 -7.254267 -4.359678 -0.513006 1.030842 -1.757340 5.912369 4.698753 -5.829963 -7.327523 0.000000 -0.000000 0.000000 -4.026709 3.815578 -1.246006 1.350617 -1.685497 8.180267 0.496684 0.493404 -3.524441 2.957920 4.205121 -0.905970 4.329056 -0.505308 0.612623 -28.376591 -2.352955 0.065513 -54.354722 -6.095998 15.956391 0.876053 -18.948629 4.943149 -1.063379 -13.425098 2.448966 31.316654 4.259044 5.140804 53.492792 3.650141 15.511192 -9.595688 24.073788 -4.105113 -0.729075 10.749306 -3.512491 
0.370949 0.173172 0.995655 87.230502 0.129134 89.695313 6.998811 4.341198 3.820217 -3.917111 -1.865154 -0.160518 0.274045 8.854178 -4.950215 0.000000 -0.000000 0.000000 -7.256962 -4.355848 -0.518512 1.027623 -1.756691 5.913305 4.692745 -5.833426 -7.322035 0.000000 -0.000000 0.000000 -4.022728 3.812421 -1.249115 1.345462 -1.690736 8.210386 0.483696 0.499357 -3.541218 2.949069 4.224140 -0.912005 4.321674 -0.504735 0.613577 -28.378167 -2.355540 0.050545 -54.351405 -6.101573 15.966993 0.916937 -18.949436 4.946062 -1.161762 -13.430236 2.520529 31.327429 4.269243 5.142728 53.490290 3.649070 15.508554 -9.615791 24.061638 -4.141314 -0.662581 10.773981 -3.495006 
0.370891 0.173198 0.995640 87.232524 0.126669 89.709270 6.992379 4.350697 3.803032 -3.912292 -1.872483 -0.164745 0.289338 8.853888 -4.942625 0.000000 -0.000000 0.000000 -7.254038 -4.355888 -0.536603 1.021505 -1.758422 5.917699 4.684014 -5.835778 -7.324176 0.000000 -0.000000 0.000000 -4.015437 3.807739 -1.228526 1.341629 -1.683067 8.191925 0.469988 0.504133 -3.555402 2.946981 4.255133 -0.899210 4.284418 -0.464932 0.676061 -28.415380 -2.326474 0.029350 -54.337143 -6.076937 15.986182 0.996881 -18.992081 4.952260 -1.245137 -13.419630 2.599189 31.342045 4.252250 5.131812 53.486219 3.637470 15.523254 -9.636104 24.064660 -4.153155 -0.596838 10.776536 -3.459567 
0.370814 0.173276 0.995644 87.251974 0.119627 89.738323 6.990538 4.351802 3.752699 -3.933035 -1.889133 -0.151176 0.288109 8.855989 -4.936949 0.000000 -0.000000 0.000000 -7.272613 -4.356834 -0.549211 1.040204 -1.776405 5.875967 4.680783 -5.860780 -7.302266 0.000000 -0.000000 0.000000 -3.993683 3.806991 -1.195466 1.328884 -1.665982 8.073380 0.464514 0.487660 -3.519806 2.925686 4.305076 -0.837273 4.228165 -0.382901 0.814437 -28.491280 -2.265518 0.005913 -54.288540 -6.069272 16.011539 1.080202 -18.954248 5.020025 -1.319999 -13.616172 2.753541 31.347983 4.190842 5.086199 53.469783 3.603706 15.551137 -9.613737 24.090440 -4.062016 -0.609548 10.787009 -3.467954 
0.370702 0.173285 0.995656 87.261925 0.115680 89.750597 6.966314 4.354965 3.727595 -3.907960 -1.909262 -0.153058 0.247531 8.852409 -4.919085 0.000000 -0.000000 0.000000 -7.274962 -4.354206 -0.567320 1.030500 -1.765811 5.880498 4.676149 -5.881746 -7.298064 0.000000 -0.000000 0.000000 -3.980842 3.790298 -1.204142 1.321029 -1.661966 8.063479 0.467929 0.494941 -3.458310 2.878225 4.310888 -0.880457 4.189644 -0.452956 0.859707 -28.403100 -2.262954 -0.018390 -54.393812 -6.140408 16.003316 1.071460 -18.876770 5.022324 -1.374133 -13.642700 2.795834 31.261459 4.222502 5.049067 53.556890 3.622429 15.568139 -9.641755 24.071450 -4.034931 -0.615820 10.727224 -3.558138 
0.370642 0.173221 0.995618 87.258015 0.126092 89.773060 6.972534 4.332939 3.706360 -3.900605 -1.901767 -0.158455 0.204612 8.896635 -4.915692 0.000000 -0.000000 0.000000 -7.259054 -4.330012 -0.592396 1.035066 -1.794456 5.874007 4.705527 -5.892119 -7.302065 0.000000 -0.000000 0.000000 -3.962871 3.797511 -1.216370 1.289202 -1.646985 8.010050 0.497782 0.494961 -3.410205 2.793858 4.311878 -0.932035 4.209975 -0.394949 0.883973 -28.385552 -2.285705 0.039396 -54.375789 -6.207580 15.964679 1.033402 -18.569783 5.217960 -1.146331 -14.193477 2.941239 31.223330 4.240372 5.056098 53.570667 3.607213 15.529799 -9.544310 24.085384 -3.813271 -1.003819 10.847183 -3.729118 
0.370645 0.173206 0.995588 87.258257 0.124964 89.774048 6.972250 4.332289 3.706169 -3.899147 -1.901302 -0.158215 0.206187 8.897913 -4.915733 0.000000 -0.000000 0.000000 -7.257875 -4.328140 -0.593954 1.034259 -1.792812 5.875869 4.705112 -5.893302 -7.303395 0.000000 -0.000000 0.000000 -3.962766 3.796557 -1.214363 1.285652 -1.645734 8.009956 0.493941 0.498156 -3.408719 2.794269 4.312950 -0.932628 4.208273 -0.393377 0.889870 -28.389977 -2.280885 0.038776 -54.376362 -6.203320 15.963665 1.041919 -18.576009 5.217097 -1.150714 -14.191851 2.944175 31.224791 4.240313 5.055996 53.569888 3.608029 15.530669 -9.544625 24.085043 -3.811966 -0.998624 10.846697 -3.728683 
0.370618 0.173188 0.995593 87.259206 0.121593 89.773695 6.972639 4.332990 3.700673 -3.903434 -1.903195 -0.155837 0.208515 8.897783 -4.916769 0.000000 -0.000000 0.000000 -7.259536 -4.325600 -0.597754 1.034037 -1.791345 5.879914 4.703124 -5.894421 -7.307255 0.000000 -0.000000 0.000000 -3.959901 3.789900 -1.211286 1.280170 -1.648420 8.015533 0.487803 0.504840 -3.413463 2.795450 4.323274 -0.939773 4.203018 -0.383991 0.901382 -28.393099 -2.273151 0.036732 -54.375779 -6.195409 15.960550 1.058613 -18.589504 5.214389 -1.156371 -14.190040 2.949687 31.226049 4.242829 5.057477 53.569037 3.616004 15.532328 -9.543550 24.084268 -3.809406 -0.989936 10.849580 -3.727477 
0.370548 0.173233 0.995581 87.256842 0.106967 89.774763 6.960433 4.366679 3.686041 -3.920433 -1.899167 -0.140212 0.194008 8.893697 -4.918379 0.000000 -0.000000 0.000000 -7.273026 -4.299456 -0.605700 1.021070 -1.804254 5.886344 4.691686 -5.899027 -7.329331 0.000000 -0.000000 0.000000 -3.930820 3.721100 -1.235625 1.249428 -1.686237 8.116526 0.453852 0.557438 -3.448844 2.791960 4.427531 -0.926757 4.175151 -0.359472 0.871807 -28.368978 -2.269513 0.006353 -54.402670 -6.143040 15.944730 1.142232 -18.649094 5.160927 -1.197567 -14.167252 3.010552 31.212618 4.288524 5.085377 53.585955 3.669532 15.526357 -9.566151 24.101088 -3.827226 -0.958134 10.898881 -3.696157 
